<?xml version="1.0" encoding="UTF-8" standalone="no"?>
<!DOCTYPE svg PUBLIC "-//W3C//DTD SVG 1.1//EN" "http://www.w3.org/Graphics/SVG/1.1/DTD/svg11.dtd">
<svg width="100%" height="100%" viewBox="0 0 512 512" version="1.1" xmlns="http://www.w3.org/2000/svg" xmlns:xlink="http://www.w3.org/1999/xlink" xml:space="preserve" style="fill-rule:evenodd;clip-rule:evenodd;stroke-linejoin:round;stroke-miterlimit:1.41421;">
    <g id="Layer-1">
        <g transform="matrix(0.92446,0,0,1.36644,19.4004,-461.418)">
            <rect x="105.653" y="591.879" width="553.837" height="374.696" style="fill:none;"/>
        </g>
        <g transform="matrix(1,0,0,1,-97.0626,10.603)">
            <path d="M203.653,117.208C203.653,117.208 436.271,117.208 526.277,117.208C535.553,117.208 544.449,120.893 551.007,127.452C557.566,134.011 561.251,142.907 561.251,152.182C561.251,201.146 561.251,289.61 561.251,338.587C561.251,357.916 545.582,373.585 526.252,373.585C447.752,373.585 258.376,373.585 179.874,373.585C170.591,373.585 161.689,369.898 155.125,363.334C148.562,356.77 144.874,347.868 144.874,338.585C144.874,281.053 144.874,172.8 144.874,172.8L203.653,117.208ZM254.782,329.66L254.782,305.647L230.768,305.647L230.768,329.66L254.782,329.66ZM304.395,329.66L304.395,305.647L280.381,305.647L280.381,329.66L304.395,329.66ZM424.857,328.504L424.857,304.49L400.843,304.49L400.843,328.504L424.857,328.504ZM471.788,328.504L471.788,304.49L447.774,304.49L447.774,328.504L471.788,328.504ZM279.867,257.686L279.867,233.672L255.853,233.672L255.853,257.686L279.867,257.686ZM232.13,257.686L232.13,233.672L208.116,233.672L208.116,257.686L232.13,257.686ZM328.742,257.686L328.742,233.672L304.729,233.672L304.729,257.686L328.742,257.686ZM376.615,257.686L376.615,233.672L352.601,233.672L352.601,257.686L376.615,257.686ZM448.226,257.686L448.226,233.672L424.212,233.672L424.212,257.686L448.226,257.686ZM496.099,257.686L496.099,233.672L472.085,233.672L472.085,257.686L496.099,257.686ZM512.747,187.008L512.747,162.994L488.734,162.994L488.734,187.008L512.747,187.008ZM232.237,185.851L232.237,161.838L208.224,161.838L208.224,185.851L232.237,185.851ZM351.873,185.851L351.873,161.838L327.86,161.838L327.86,185.851L351.873,185.851ZM400.749,185.851L400.749,161.838L376.735,161.838L376.735,185.851L400.749,185.851Z" style="fill:url(#_Linear1);"/>
        </g>
    </g>
    <defs>
        <linearGradient id="_Linear1" x1="0" y1="0" x2="1" y2="0" gradientUnits="userSpaceOnUse" gradientTransform="matrix(416.377,0,0,256.377,144.874,245.397)"><stop offset="0%" style="stop-color:rgb(122,30,161);stop-opacity:1"/><stop offset="100%" style="stop-color:rgb(105,26,153);stop-opacity:1"/></linearGradient>
    </defs>
</svg>
