<?xml version="1.0" encoding="UTF-8" standalone="no"?>
<!DOCTYPE svg PUBLIC "-//W3C//DTD SVG 1.1//EN" "http://www.w3.org/Graphics/SVG/1.1/DTD/svg11.dtd">
<svg width="100%" height="100%" viewBox="0 0 512 512" version="1.1" xmlns="http://www.w3.org/2000/svg" xmlns:xlink="http://www.w3.org/1999/xlink" xml:space="preserve" style="fill-rule:evenodd;clip-rule:evenodd;stroke-linejoin:round;stroke-miterlimit:1.41421;">
    <g transform="matrix(1,0,0,1,-117.072,-347.348)">
        <g id="Layer-1">
            <g>
                <g transform="matrix(0.92446,0,0,1.36644,19.4004,-461.418)">
                    <rect x="105.653" y="591.879" width="553.837" height="374.696" style="fill:none;"/>
                </g>
                <path d="M223.663,475.16C223.663,475.16 456.281,475.16 546.287,475.16C555.563,475.16 564.458,478.845 571.017,485.403C577.576,491.962 581.261,500.858 581.261,510.134C581.261,559.097 581.261,647.561 581.261,696.538C581.261,715.867 565.591,731.537 546.262,731.537C467.761,731.537 278.385,731.537 199.884,731.537C190.601,731.537 181.699,727.849 175.135,721.286C168.571,714.722 164.884,705.819 164.884,696.537C164.884,639.004 164.884,530.752 164.884,530.752L223.663,475.16ZM244.168,683.691L244.168,667.691L228.168,667.691L228.168,683.691L244.168,683.691ZM292.111,683.691L292.111,667.691L276.111,667.691L276.111,683.691L292.111,683.691ZM324.619,683.691L324.619,667.691L308.619,667.691L308.619,683.691L324.619,683.691ZM452.545,683.691L452.545,667.691L436.545,667.691L436.545,683.691L452.545,683.691ZM483.883,683.691L483.883,667.691L467.883,667.691L467.883,683.691L483.883,683.691ZM259.503,636.089L259.503,620.089L243.503,620.089L243.503,636.089L259.503,636.089ZM292.559,636.089L292.559,620.089L276.559,620.089L276.559,636.089L292.559,636.089ZM388.231,636.089L388.231,620.089L372.231,620.089L372.231,636.089L388.231,636.089ZM420.271,636.089L420.271,620.089L404.271,620.089L404.271,636.089L420.271,636.089ZM500.254,636.089L500.254,620.089L484.254,620.089L484.254,636.089L500.254,636.089ZM276.216,588.133L276.216,572.133L260.216,572.133L260.216,588.133L276.216,588.133ZM244.41,588.133L244.41,572.133L228.41,572.133L228.41,588.133L244.41,588.133ZM308.781,588.133L308.781,572.133L292.781,572.133L292.781,588.133L308.781,588.133ZM340.678,588.133L340.678,572.133L324.678,572.133L324.678,588.133L340.678,588.133ZM388.391,588.133L388.391,572.133L372.391,572.133L372.391,588.133L388.391,588.133ZM420.288,588.133L420.288,572.133L404.288,572.133L404.288,588.133L420.288,588.133ZM530.818,588.133L530.818,572.133L514.818,572.133L514.818,588.133L530.818,588.133ZM244.482,540.271L244.482,524.271L228.482,524.271L228.482,540.271L244.482,540.271ZM324.193,540.271L324.193,524.271L308.193,524.271L308.193,540.271L324.193,540.271ZM356.758,540.271L356.758,524.271L340.758,524.271L340.758,540.271L356.758,540.271ZM452.185,540.271L452.185,524.271L436.185,524.271L436.185,540.271L452.185,540.271ZM484.345,540.271L484.345,524.271L468.345,524.271L468.345,540.271L484.345,540.271Z" style="fill:rgb(68,68,68);"/>
            </g>
        </g>
    </g>
</svg>
